<svg xmlns="http://www.w3.org/2000/svg" xmlns:xlink="http://www.w3.org/1999/xlink" xml:space="preserve" width="200" height="200" viewBox="0 0 200 200">
  <defs>
    <clipPath id="a">
      <path d="M -22.114845,0 0,-17 5,0" transform="rotate(-7.25)"/>
    </clipPath>
    <clipPath id="b">
      <path d="M 0,-19 -19,0 h 38"/>
    </clipPath>
  </defs>
  <g style="display:inline">
    <path d="M 0,0 H 200 V 200 H 0 Z" style="display:inline;fill:#c42021;fill-opacity:1;stroke-width:2.11699"/>
    <circle cx="100" cy="100" r="98" style="display:none;opacity:.254386;fill:#fdbe00;fill-opacity:1;stroke:#fdbe00;stroke-width:4;stroke-dasharray:none;stroke-opacity:1"/>
  </g>
  <g>
    <animate attributeName="opacity" dur="13s" values="0;1;1;1;1;1;1;1;1;1;1;1;1"/>
    <g style="display:none">
      <text xml:space="preserve" x="89.9843" y="174.6794" style="font-style:normal;font-variant:normal;font-weight:600;font-stretch:normal;font-size:8.81433px;font-family:Oswald;-inkscape-font-specification:'Oswald Semi-Bold';text-align:center;letter-spacing:4px;text-anchor:middle;fill:#fff;stroke-width:2.11701" transform="matrix(1.07994 0 0 .92598 0 18)"><tspan x="92.1593" y="174.6794" style="font-style:normal;font-variant:normal;font-weight:700;font-stretch:normal;font-family:Oswald;-inkscape-font-specification:'Oswald Bold';stroke-width:2.11701">PHILADELPHIA</tspan></text>
      <text xml:space="preserve" x="99.945" y="152.524" style="font-style:normal;font-variant:normal;font-weight:600;font-stretch:normal;font-size:23.7937px;line-height:0;font-family:Oswald;-inkscape-font-specification:'Oswald Semi-Bold';text-align:center;letter-spacing:.500001px;text-anchor:middle;fill:#fff;stroke-width:2.11701" transform="translate(0 18)"><tspan x="100.195" y="152.524" dx="0 0 0 0 0 0 0 0 0" style="stroke-width:2.11701">ANAKBAYAN</tspan></text>
    </g>
    <g style="display:inline">
      <g aria-label="PHILADELPHIA" style="font-weight:600;font-size:8.81433px;font-family:Oswald;-inkscape-font-specification:'Oswald Semi-Bold';text-align:center;letter-spacing:4px;text-anchor:middle;fill:#fff;stroke-width:2.11701">
        <path d="M44.3112 174.6794v-7.1396h2.3975q.6434 0 1.0577.2468.4143.238.617.7051.2027.4584.2027 1.1194 0 .8286-.2732 1.2693-.2732.4319-.7404.5994-.4672.1675-1.0489.1675h-.6346v3.0321zm1.5778-4.1339h.5289q.2909 0 .4407-.1058.1498-.1058.1939-.3173.0529-.2115.0529-.5377 0-.2732-.0441-.476-.0353-.2115-.1851-.335-.1498-.1234-.4672-.1234h-.52zM53.3707 174.6794v-7.1396h1.5778v2.8911h1.1106v-2.8911h1.5778v7.1396h-1.5778v-3.1203h-1.1106v3.1203zM62.7298 174.6794v-7.1396h1.5778v7.1396zM69.3741 174.6794v-7.1396h1.5778v6.0731h1.6395v1.0665zM76.9351 174.6794l1.3486-7.1396h1.7981l1.331 7.1396h-1.4544l-.238-1.5072h-1.0489l-.2468 1.5073zm1.8775-2.4504h.758l-.379-2.7853zM86.1355 174.6794v-7.1396h1.8069q.9343 0 1.4544.238.52.2292.7316.7316.2115.4936.2115 1.2869v2.5914q0 .8021-.2115 1.3133-.2115.5024-.7316.7404-.5112.238-1.4367.238zm1.5778-1.093h.2468q.3614 0 .52-.1058.1587-.1058.1939-.3173.0441-.2115.0441-.5289V169.523q0-.3173-.0529-.5112-.0441-.1939-.2027-.2821-.1587-.0881-.5112-.0881h-.238zM95.3007 174.6794v-7.1396h3.2084v1.0754h-1.6307v1.7717h1.2428v1.093h-1.2428v2.1331h1.6483v1.0665zM103.2408 174.6794v-7.1396h1.5778v6.0731h1.6395v1.0665zM111.1455 174.6794v-7.1396h2.3975q.6435 0 1.0577.2468.4143.238.617.7051.2027.4584.2027 1.1194 0 .8286-.2732 1.2693-.2732.4319-.7404.5994-.4672.1675-1.0489.1675h-.6346v3.0321zm1.5778-4.1339h.5289q.2909 0 .4407-.1058.1499-.1058.1939-.3173.0529-.2115.0529-.5377 0-.2732-.0441-.476-.0353-.2115-.1851-.335-.1498-.1234-.4672-.1234h-.52zM120.2049 174.6794v-7.1396h1.5778v2.8911h1.1106v-2.8911h1.5778v7.1396h-1.5778v-3.1203h-1.1106v3.1203zM129.564 174.6794v-7.1396h1.5778v7.1396zM135.8646 174.6794l1.3486-7.1396h1.7981l1.331 7.1396h-1.4544l-.238-1.5072h-1.0489l-.2468 1.5073zm1.8775-2.4504h.758l-.379-2.7853z" style="font-weight:700;-inkscape-font-specification:'Oswald Bold'" transform="matrix(1.07994 0 0 .92598 0 18)"/>
      </g>
      <g aria-label="ANAKBAYAN" style="font-weight:600;font-size:23.7937px;line-height:0;font-family:Oswald;-inkscape-font-specification:'Oswald Semi-Bold';text-align:center;letter-spacing:.500001px;text-anchor:middle;fill:#fff;stroke-width:2.11701">
        <path d="m41.7325 152.524 3.7356-19.2729h4.3542l3.7118 19.2729h-3.6404l-.69-4.2353h-3.0456l-.7376 4.2353zm4.7825-6.6384h2.308l-1.1659-7.7805zM55.9853 152.524v-19.2729h2.7363l4.2829 10.0409V133.2511H66.2404V152.524H63.6231L59.3402 141.8644V152.524ZM68.7153 152.524l3.7356-19.2729h4.3542l3.7118 19.2729h-3.6404l-.69-4.2353h-3.0456l-.7376 4.2353zm4.7825-6.6384h2.308l-1.1659-7.7805zM82.968 152.524v-19.2729h3.926v8.1374l3.4739-8.1374h3.807l-3.6166 8.6609 3.8784 10.612H90.4868l-2.9742-8.6371-.6186 1.0945v7.5426zM96.6022 152.524v-19.2729h4.8777q1.2611 0 2.3318.2141 1.0707.2141 1.8797.7614.8328.5473 1.2611 1.5228.4521.9518.4521 2.4983 0 1.1659-.3331 1.9987-.3331.809-.9517 1.2849-.6186.4759-1.5228.6424 1.1183.1666 1.8797.7614.7614.5948 1.1421 1.5704.3807.9755.3807 2.3556 0 1.4514-.3807 2.5221-.3569 1.0707-1.0707 1.7607-.7138.69-1.7607 1.0469-1.0469.3331-2.4269.3331zm3.926-2.7601h1.0945q1.4752 0 2.0225-.7376.571-.7376.571-2.2128 0-1.1421-.2617-1.8083-.2617-.69-.8566-.9993-.571-.3331-1.5466-.3331h-1.0231zm0-8.7323h.9755q1.0231 0 1.5466-.2855.5235-.3093.7138-.9042.2141-.6186.2141-1.499 0-.8804-.3093-1.4038-.2855-.5473-.9042-.7852-.5948-.2379-1.5228-.2379h-.7138zM109.7604 152.524l3.7356-19.2729h4.3543l3.7118 19.2729h-3.6404l-.69-4.2353H114.186l-.7376 4.2353zm4.7825-6.6384h2.308l-1.1659-7.7805zM125.5122 152.524v-7.6378l-3.7594-11.6351h3.688l2.0701 6.7812 1.9273-6.7812h3.5691l-3.7118 11.6351v7.6378zM133.1741 152.524l3.7356-19.2729h4.3542l3.7118 19.2729h-3.6404l-.69-4.2353h-3.0456l-.7376 4.2353zm4.7825-6.6384h2.308l-1.1659-7.7805zM147.4268 152.524v-19.2729h2.7363l4.2829 10.0409v-10.0409h3.236V152.524h-2.6173l-4.2829-10.6596V152.524Z" transform="translate(0 18)"/>
      </g>
    </g>
    <g style="display:inline">
      <g style="opacity:0">
        <animate attributeName="opacity" dur="13s" repeatCount="indefinite" values="0;0;0;0;0;0;0;0;0;1;1;1;1;1;0"/>
        <path d="m 255.60352,-37.117187 -57.16407,99.009765 h 114.32813 l -1.19922,-2.076172 z m 0,5.537109 52.36718,90.703125 H 203.23633 Z" style="color:#000;fill:#fdbe00;opacity:1;stroke:none;stroke-width:.99990375;stroke-dasharray:none" transform="matrix(1.44321 0 0 1.44507 -268.8908 58.0231)"/>
      </g>
      <g style="display:inline;opacity:0" transform-origin="100 100">
        <animateTransform attributeName="transform" calcMode="spline" dur="13s" keySplines="1 0 0 1" keyTimes="0;1" repeatCount="indefinite" type="rotate" values="0;3600"/>
        <animate attributeName="opacity" dur="13s" repeatCount="indefinite" values="0;0;0;0;0;0;0;0;0;1;1;1;1;1;0"/>
        <g style="display:inline;fill:#fdbe00;fill-opacity:1;stroke-width:.636132" transform="translate(99.9486 99.8485) scale(1.572)">
          <g id="g" style="display:inline;fill:#fdbe00;fill-opacity:1;stroke-width:.636132">
            <g id="f" style="fill:#fdbe00;fill-opacity:1;stroke-width:.636132">
              <g id="e" style="fill:#fdbe00;fill-opacity:1;stroke-width:.636132">
                <g id="d" clip-path="url(#a)" style="fill:#fdbe00;fill-opacity:1;stroke-width:.636132">
                  <path d="m 0,0 v -19 l 0.76,-0.22" style="fill:#fdbe00;fill-opacity:1;stroke-width:.636132" transform="rotate(-11.25)"/>
                  <path d="m 0,0 v -19 l -0.76,-0.22" style="fill:#fdbe00;fill-opacity:1;stroke-width:.636132" transform="rotate(-7.25)"/>
                </g>
                <g clip-path="url(#b)" style="fill:#fdbe00;fill-opacity:1;stroke-width:.636132">
                  <path id="c" d="M 0,-19 V 0 l 1.8,-19.9" style="fill:#fdbe00;fill-opacity:1;stroke-width:.636132" transform="rotate(-3.75)"/>
                  <use xlink:href="#c" style="fill:#fdbe00;fill-opacity:1;stroke-width:.636132" transform="scale(-1 1)"/>
                </g>
                <use xlink:href="#d" style="fill:#fdbe00;fill-opacity:1;stroke-width:.636132" transform="scale(-1 1)"/>
              </g>
              <use xlink:href="#e" style="fill:#fdbe00;fill-opacity:1;stroke-width:.636132" transform="scale(-1)"/>
            </g>
            <use xlink:href="#f" style="fill:#fdbe00;fill-opacity:1;stroke-width:.636132" transform="rotate(90)"/>
          </g>
          <use xlink:href="#g" style="fill:#fdbe00;fill-opacity:1;stroke-width:.636132" transform="rotate(45)"/>
          <circle r="9" style="fill:#fdbe00;fill-opacity:1;stroke-width:.636132"/>
        </g>
      </g>
      <g>
        <animate attributeName="opacity" dur="13s" repeatCount="indefinite" values="0;1;1;1;1;1;1;1;0;0;0;0;0;0;0"/>
        <path d="m 65.947491,69.180237 c 0,0 6.809063,5.057198 11.527705,5.233071 5.297734,0.197442 10.021856,-0.917394 14.596384,-3.233431 5.722379,-2.897186 11.83562,-5.024894 18.64313,-4.763131 6.36192,0.244611 12.82858,2.447698 18.1536,5.937449 2.29115,1.501493 5.45971,6.142185 5.45971,6.142185 0,0 -10.83066,-5.282895 -15.60447,-5.692747 -9.17371,-0.787615 -13.92834,1.870814 -13.92834,1.870814 0,0 1.31278,4.64073 1.48347,7.029392 0.17386,2.433146 -0.12737,4.888365 -0.47774,7.302387 -0.32503,2.239217 -1.50142,6.619914 -1.50142,6.619914 0,0 8.06242,-2.375357 12.21616,-2.866347 4.63132,-0.54747 11.641,-0.47955 16.25863,0.17325 4.15541,0.58745 5.64076,1.067637 9.47373,2.776697 2.80807,1.25208 5.84877,3.37897 8.18618,5.37634 1.7783,1.5196 4.57251,5.32324 4.57251,5.32324 0,0 -4.38422,-3.49346 -6.82466,-4.84551 -1.36719,-0.75744 -4.61562,-1.66201 -6.60135,-2.11566 -4.41131,-1.00782 -8.07467,-1.09423 -12.59593,-0.91062 -6.07272,0.24642 -12.07963,1.43499 -17.99709,2.82155 -11.719442,2.74609 -22.842947,7.85892 -34.669266,10.10048 -4.174601,0.79124 -8.241245,1.47557 -12.489131,1.56968 -2.914337,0.0646 -6.157002,0.0475 -8.940299,-0.81899 -2.5073,-0.78055 -4.923443,-2.21839 -6.688161,-4.16304 -1.791265,-1.97389 -1.548821,-5.16587 -1.548821,-5.16587 0,0 1.590207,2.14841 3.937452,3.45972 1.898669,1.06072 4.116949,1.53574 6.27868,1.77441 3.668704,0.40505 7.414896,-0.008 11.05595,-0.61421 4.895077,-0.81358 9.642338,-2.40397 14.331779,-4.02656 2.69887,-0.93384 5.590975,-1.61828 7.916598,-3.27583 2.375335,-1.69296 4.347485,-4.02266 5.800959,-6.551657 1.121994,-1.95223 1.824627,-4.182383 2.115651,-6.415177 0.297486,-2.282381 0.3168,-4.708837 -0.409478,-6.892913 -0.378285,-1.137562 -1.97915,-3.002872 -1.97915,-3.002872 0,0 -5.121411,1.722935 -7.780112,2.115666 -2.431445,0.359055 -4.919323,0.383773 -7.37063,0.20485 -2.234328,-0.163275 -4.548076,-0.308031 -6.619918,-1.160201 -1.844205,-0.758589 -3.62157,-1.893498 -4.91376,-3.412309 -1.584389,-2.008539 -1.604316,-2.097074 -3.068552,-5.90402 z" style="display:inline;fill:#fdbe00;fill-opacity:1;stroke-width:2.11701"/>
      </g>
      <g transform-origin="100 35.5">
        <animateTransform attributeName="transform" calcMode="spline" dur="13s" keySplines="1 0 0 1" keyTimes="0;1" repeatCount="indefinite" type="rotate" values="0;3600"/>
        <path d="m 104.97992,42.269742 -4.91201,-3.072766 -4.976537,2.96712 1.404511,-5.621156 -4.35974,-3.816064 5.780031,-0.401284 L 100.19823,27 l 2.16777,5.373118 5.77015,0.52471 -4.44028,3.72205 z" style="display:inline;fill:#fdbe00;fill-opacity:1;stroke-width:2.117"/>
      </g>
      <g transform-origin="42.75 132.5">
        <animateTransform attributeName="transform" calcMode="spline" dur="13s" keySplines="1 0 0 1" keyTimes="0;1" repeatCount="indefinite" type="rotate" values="0;3600"/>
        <path d="m 49.878194,138.00902 -5.540573,-1.69491 -4.037719,4.15537 -0.100119,-5.7931 -5.19978,-2.55595 5.478691,-1.8854 0.824055,-5.73503 3.486156,4.62783 5.709098,-0.98846 -3.324126,4.74554 z" style="display:inline;fill:#fdbe00;fill-opacity:1;stroke-width:2.117"/>
      </g>
      <g transform-origin="157.35 132.45">
        <animateTransform attributeName="transform" calcMode="spline" dur="13s" keySplines="1 0 0 1" keyTimes="0;1" repeatCount="indefinite" type="rotate" values="0;3600"/>
        <path d="m 160.38374,140.38638 -4.2678,-3.91851 -5.43472,2.00793 2.40782,-5.26992 -3.58904,-4.54838 5.75591,0.66151 3.21654,-4.81901 1.14956,5.67873 5.57699,1.57013 -5.04541,2.84814 z" style="display:inline;fill:#fdbe00;fill-opacity:1;stroke-width:2.117"/>
      </g>
    </g>
  </g>
</svg>
