<?xml version="1.0" encoding="UTF-8" standalone="no"?>
<svg
   width="200"
   height="200"
   viewBox="0 0 200 200"
   version="1.1"
   id="svg5"
   xml:space="preserve"
   sodipodi:docname="anakbayan-philadelphia-logo-animated.svg"
   inkscape:version="1.2.2 (732a01da63, 2022-12-09)"
   xmlns:inkscape="http://www.inkscape.org/namespaces/inkscape"
   xmlns:sodipodi="http://sodipodi.sourceforge.net/DTD/sodipodi-0.dtd"
   xmlns:xlink="http://www.w3.org/1999/xlink"
   xmlns="http://www.w3.org/2000/svg"
   xmlns:svg="http://www.w3.org/2000/svg"><defs
   id="defs6475"><clipPath
   id="f"><path
     transform="rotate(-7.25)"
     d="M -22.114845,0 0,-17 5,0"
     id="path5889" /></clipPath><clipPath
   id="g"><path
     d="M 0,-19 -19,0 h 38"
     id="path5886" /></clipPath><clipPath
   id="clipPath6066"><path
     transform="rotate(-7.25)"
     d="M -22.114845,0 0,-17 5,0"
     id="path6064" /></clipPath><clipPath
   id="clipPath6070"><path
     transform="rotate(-7.25)"
     d="M -22.114845,0 0,-17 5,0"
     id="path6068" /></clipPath><clipPath
   id="clipPath6074"><path
     transform="rotate(-7.25)"
     d="M -22.114845,0 0,-17 5,0"
     id="path6072" /></clipPath><clipPath
   id="clipPath6078"><path
     d="M 0,-19 -19,0 h 38"
     id="path6076" /></clipPath><clipPath
   id="clipPath6082"><path
     transform="rotate(-7.25)"
     d="M -22.114845,0 0,-17 5,0"
     id="path6080" /></clipPath><clipPath
   id="clipPath6086"><path
     transform="rotate(-7.25)"
     d="M -22.114845,0 0,-17 5,0"
     id="path6084" /></clipPath><clipPath
   id="clipPath6090"><path
     d="M 0,-19 -19,0 h 38"
     id="path6088" /></clipPath><clipPath
   id="clipPath6094"><path
     transform="rotate(-7.25)"
     d="M -22.114845,0 0,-17 5,0"
     id="path6092" /></clipPath><clipPath
   id="clipPath6098"><path
     transform="rotate(-7.25)"
     d="M -22.114845,0 0,-17 5,0"
     id="path6096" /></clipPath><clipPath
   id="clipPath6102"><path
     d="M 0,-19 -19,0 h 38"
     id="path6100" /></clipPath><clipPath
   id="clipPath6106"><path
     transform="rotate(-7.25)"
     d="M -22.114845,0 0,-17 5,0"
     id="path6104" /></clipPath><clipPath
   id="clipPath6110"><path
     transform="rotate(-7.25)"
     d="M -22.114845,0 0,-17 5,0"
     id="path6108" /></clipPath><clipPath
   id="clipPath6114"><path
     d="M 0,-19 -19,0 h 38"
     id="path6112" /></clipPath><clipPath
   id="clipPath6118"><path
     transform="rotate(-7.25)"
     d="M -22.114845,0 0,-17 5,0"
     id="path6116" /></clipPath><clipPath
   id="clipPath6122"><path
     transform="rotate(-7.25)"
     d="M -22.114845,0 0,-17 5,0"
     id="path6120" /></clipPath><clipPath
   id="clipPath6126"><path
     d="M 0,-19 -19,0 h 38"
     id="path6124" /></clipPath><clipPath
   id="clipPath6130"><path
     transform="rotate(-7.25)"
     d="M -22.114845,0 0,-17 5,0"
     id="path6128" /></clipPath><clipPath
   id="clipPath6134"><path
     transform="rotate(-7.25)"
     d="M -22.114845,0 0,-17 5,0"
     id="path6132" /></clipPath><clipPath
   id="clipPath6138"><path
     d="M 0,-19 -19,0 h 38"
     id="path6136" /></clipPath><clipPath
   id="clipPath6142"><path
     transform="rotate(-7.25)"
     d="M -22.114845,0 0,-17 5,0"
     id="path6140" /></clipPath><clipPath
   id="clipPath6146"><path
     transform="rotate(-7.25)"
     d="M -22.114845,0 0,-17 5,0"
     id="path6144" /></clipPath><clipPath
   id="clipPath6150"><path
     d="M 0,-19 -19,0 h 38"
     id="path6148" /></clipPath><clipPath
   id="clipPath6154"><path
     transform="rotate(-7.25)"
     d="M -22.114845,0 0,-17 5,0"
     id="path6152" /></clipPath><clipPath
   id="clipPath6158"><path
     transform="rotate(-7.25)"
     d="M -22.114845,0 0,-17 5,0"
     id="path6156" /></clipPath><clipPath
   id="clipPath6162"><path
     d="M 0,-19 -19,0 h 38"
     id="path6160" /></clipPath><clipPath
   id="clipPath6166"><path
     transform="rotate(-7.25)"
     d="M -22.114845,0 0,-17 5,0"
     id="path6164" /></clipPath><clipPath
   id="clipPath6170"><path
     transform="rotate(-7.25)"
     d="M -22.114845,0 0,-17 5,0"
     id="path6168" /></clipPath><clipPath
   id="clipPath6174"><path
     d="M 0,-19 -19,0 h 38"
     id="path6172" /></clipPath><clipPath
   id="clipPath6178"><path
     transform="rotate(-7.25)"
     d="M -22.114845,0 0,-17 5,0"
     id="path6176" /></clipPath><clipPath
   id="clipPath6182"><path
     transform="rotate(-7.25)"
     d="M -22.114845,0 0,-17 5,0"
     id="path6180" /></clipPath><clipPath
   id="clipPath6186"><path
     d="M 0,-19 -19,0 h 38"
     id="path6184" /></clipPath><clipPath
   id="clipPath6190"><path
     transform="rotate(-7.25)"
     d="M -22.114845,0 0,-17 5,0"
     id="path6188" /></clipPath><clipPath
   id="clipPath6194"><path
     transform="rotate(-7.25)"
     d="M -22.114845,0 0,-17 5,0"
     id="path6192" /></clipPath><clipPath
   id="clipPath6198"><path
     d="M 0,-19 -19,0 h 38"
     id="path6196" /></clipPath><clipPath
   id="clipPath6202"><path
     transform="rotate(-7.25)"
     d="M -22.114845,0 0,-17 5,0"
     id="path6200" /></clipPath><clipPath
   id="clipPath6206"><path
     transform="rotate(-7.25)"
     d="M -22.114845,0 0,-17 5,0"
     id="path6204" /></clipPath><clipPath
   id="clipPath6210"><path
     d="M 0,-19 -19,0 h 38"
     id="path6208" /></clipPath><clipPath
   id="clipPath6214"><path
     transform="rotate(-7.25)"
     d="M -22.114845,0 0,-17 5,0"
     id="path6212" /></clipPath><clipPath
   id="clipPath6218"><path
     transform="rotate(-7.25)"
     d="M -22.114845,0 0,-17 5,0"
     id="path6216" /></clipPath><clipPath
   id="clipPath6222"><path
     d="M 0,-19 -19,0 h 38"
     id="path6220" /></clipPath><clipPath
   id="clipPath6226"><path
     transform="rotate(-7.25)"
     d="M -22.114845,0 0,-17 5,0"
     id="path6224" /></clipPath><clipPath
   id="clipPath6230"><path
     transform="rotate(-7.25)"
     d="M -22.114845,0 0,-17 5,0"
     id="path6228" /></clipPath><clipPath
   id="clipPath6234"><path
     d="M 0,-19 -19,0 h 38"
     id="path6232" /></clipPath><clipPath
   id="clipPath6238"><path
     transform="rotate(-7.25)"
     d="M -22.114845,0 0,-17 5,0"
     id="path6236" /></clipPath>
            
      
    
        
      
    
    
      
    </defs><sodipodi:namedview
   id="namedview6473"
   pagecolor="#505050"
   bordercolor="#eeeeee"
   borderopacity="1"
   inkscape:showpageshadow="0"
   inkscape:pageopacity="0"
   inkscape:pagecheckerboard="0"
   inkscape:deskcolor="#505050"
   showgrid="false"
   inkscape:zoom="4"
   inkscape:cx="49.875"
   inkscape:cy="115.25"
   inkscape:window-width="2560"
   inkscape:window-height="1369"
   inkscape:window-x="1912"
   inkscape:window-y="-8"
   inkscape:window-maximized="1"
   inkscape:current-layer="layer4" />
  <g
   inkscape:groupmode="layer"
   id="layer2"
   inkscape:label="BG"
   style="display:inline"><path
     style="display:inline;fill:#c42021;fill-opacity:1;stroke-width:2.11699"
     id="rect1806"
     d="M 0,0 H 200 V 200 H 0 Z"
     inkscape:label="red-background" /><circle
     style="display:none;opacity:0.254386;fill:#fdbe00;fill-opacity:1;stroke:#fdbe00;stroke-width:4;stroke-dasharray:none;stroke-opacity:1"
     id="path8982"
     cx="100"
     cy="100"
     r="98"
     inkscape:label="guiding-circle" /></g>
<g
   inkscape:groupmode="layer"
   id="layer3"
   inkscape:label="text"
   transform="translate(0,18)"
   style="display:inline"><text
     xml:space="preserve"
     style="font-style:normal;font-variant:normal;font-weight:600;font-stretch:normal;font-size:8.81433px;font-family:Oswald;-inkscape-font-specification:'Oswald Semi-Bold';text-align:center;letter-spacing:4px;text-anchor:middle;fill:#ffffff;stroke-width:2.11701"
     x="89.984283"
     y="174.67938"
     id="text464"
     transform="scale(1.0799385,0.92597866)"
     inkscape:label="PHILADELPHIA"><tspan
       style="font-style:normal;font-variant:normal;font-weight:700;font-stretch:normal;font-family:Oswald;-inkscape-font-specification:'Oswald Bold';stroke-width:2.11701"
       x="92.159286"
       y="174.67938"
       id="tspan470">PHILADELPHIA</tspan></text><text
     xml:space="preserve"
     style="font-style:normal;font-variant:normal;font-weight:600;font-stretch:normal;font-size:23.7937px;line-height:0;font-family:Oswald;-inkscape-font-specification:'Oswald Semi-Bold';text-align:center;letter-spacing:0.500001px;text-anchor:middle;fill:#ffffff;stroke-width:2.11701"
     x="99.945"
     y="152.524"
     id="text476"
     inkscape:label="ANAKBAYAN"><tspan
       style="stroke-width:2.11701"
       x="100.195"
       y="152.524"
       id="tspan478"
       dx="0 0 0 0 0 0 0 0 0">ANAKBAYAN</tspan></text></g><g
   inkscape:groupmode="layer"
   id="layer4"
   inkscape:label="graphics"
   style="display:inline">
   <g
   id="g12178"
   style="opacity:0">
       <animate
   attributeName="opacity"
   dur="13s"
   repeatCount="indefinite"
   values="0;0;0;0;0;0;0;0;0;1;1;1;1;1;0" />
   <path
   style="color:#000000;fill:#fdbe00;opacity:1;stroke:none;stroke-width:0.99990375;stroke-dasharray:none"
   d="m 255.60352,-37.117187 -57.16407,99.009765 h 114.32813 l -1.19922,-2.076172 z m 0,5.537109 52.36718,90.703125 H 203.23633 Z"
   id="path7528"
   transform="matrix(1.4432121,0,0,1.4450665,-268.89075,58.023143)"
   inkscape:label="triangle" />
     </g>
     <g
   transform-origin="100 100"
   id="g12195"
   style="display:inline;opacity:0">
     <animateTransform
   attributeName="transform"
   type="rotate"
   dur="13s"
   calcMode="spline"
   values="0;-3600"
   keyTimes="0;1"
   keySplines="1 0 0 1"
   repeatCount="indefinite" />
   <animate
   attributeName="opacity"
   dur="13s"
   repeatCount="indefinite"
   values="0;0;0;0;0;0;0;0;0;1;1;1;1;1;0" />
     <g
   id="g6052"
   transform="matrix(1.5719991,0,0,1.5719991,99.94864,99.848514)"
   style="display:inline;fill:#fdbe00;fill-opacity:1;stroke-width:0.636132"
   inkscape:label="sun">
     <g
   id="b"
   style="display:inline;fill:#fdbe00;fill-opacity:1;stroke-width:0.636132"><g
     id="c"
     style="fill:#fdbe00;fill-opacity:1;stroke-width:0.636132"><g
       id="d"
       style="fill:#fdbe00;fill-opacity:1;stroke-width:0.636132"><g
         id="e"
         clip-path="url(#f)"
         style="fill:#fdbe00;fill-opacity:1;stroke-width:0.636132"><path
           transform="rotate(-11.25)"
           d="m 0,0 v -19 l 0.76,-0.22"
           id="path5894"
           style="fill:#fdbe00;fill-opacity:1;stroke-width:0.636132" /><path
           transform="rotate(-7.25)"
           d="m 0,0 v -19 l -0.76,-0.22"
           id="path5896"
           style="fill:#fdbe00;fill-opacity:1;stroke-width:0.636132" /></g><g
         clip-path="url(#g)"
         id="g5902"
         style="fill:#fdbe00;fill-opacity:1;stroke-width:0.636132"><path
           id="a"
           transform="rotate(-3.75)"
           d="M 0,-19 V 0 l 1.8,-19.9"
           style="fill:#fdbe00;fill-opacity:1;stroke-width:0.636132" /><use
           transform="scale(-1,1)"
           xlink:href="#a"
           id="use5900"
           style="fill:#fdbe00;fill-opacity:1;stroke-width:0.636132" /></g><use
         transform="scale(-1,1)"
         xlink:href="#e"
         id="use5904"
         style="fill:#fdbe00;fill-opacity:1;stroke-width:0.636132" /></g><use
       transform="scale(-1)"
       xlink:href="#d"
       id="use5907"
       style="fill:#fdbe00;fill-opacity:1;stroke-width:0.636132" /></g><use
     transform="rotate(90)"
     xlink:href="#c"
     id="use5910"
     style="fill:#fdbe00;fill-opacity:1;stroke-width:0.636132" /></g><use
   transform="rotate(45)"
   xlink:href="#b"
   id="use5913"
   style="fill:#fdbe00;fill-opacity:1;stroke-width:0.636132" /><circle
   r="9"
   id="circle5915"
   cx="0"
   cy="0"
   style="fill:#fdbe00;fill-opacity:1;stroke-width:0.636132" /></g>
       </g>
       <g
   id="g12198">
   <animate
   attributeName="opacity"
   dur="13s"
   repeatCount="indefinite"
   values="0;1;1;1;1;1;1;0;0;0;0;0;0" />
       <path
   style="display:inline;fill:#fdbe00;fill-opacity:1;stroke-width:2.11701"
   d="m 65.947491,69.180237 c 0,0 6.809063,5.057198 11.527705,5.233071 5.297734,0.197442 10.021856,-0.917394 14.596384,-3.233431 5.722379,-2.897186 11.83562,-5.024894 18.64313,-4.763131 6.36192,0.244611 12.82858,2.447698 18.1536,5.937449 2.29115,1.501493 5.45971,6.142185 5.45971,6.142185 0,0 -10.83066,-5.282895 -15.60447,-5.692747 -9.17371,-0.787615 -13.92834,1.870814 -13.92834,1.870814 0,0 1.31278,4.64073 1.48347,7.029392 0.17386,2.433146 -0.12737,4.888365 -0.47774,7.302387 -0.32503,2.239217 -1.50142,6.619914 -1.50142,6.619914 0,0 8.06242,-2.375357 12.21616,-2.866347 4.63132,-0.54747 11.641,-0.47955 16.25863,0.17325 4.15541,0.58745 5.64076,1.067637 9.47373,2.776697 2.80807,1.25208 5.84877,3.37897 8.18618,5.37634 1.7783,1.5196 4.57251,5.32324 4.57251,5.32324 0,0 -4.38422,-3.49346 -6.82466,-4.84551 -1.36719,-0.75744 -4.61562,-1.66201 -6.60135,-2.11566 -4.41131,-1.00782 -8.07467,-1.09423 -12.59593,-0.91062 -6.07272,0.24642 -12.07963,1.43499 -17.99709,2.82155 -11.719442,2.74609 -22.842947,7.85892 -34.669266,10.10048 -4.174601,0.79124 -8.241245,1.47557 -12.489131,1.56968 -2.914337,0.0646 -6.157002,0.0475 -8.940299,-0.81899 -2.5073,-0.78055 -4.923443,-2.21839 -6.688161,-4.16304 -1.791265,-1.97389 -1.548821,-5.16587 -1.548821,-5.16587 0,0 1.590207,2.14841 3.937452,3.45972 1.898669,1.06072 4.116949,1.53574 6.27868,1.77441 3.668704,0.40505 7.414896,-0.008 11.05595,-0.61421 4.895077,-0.81358 9.642338,-2.40397 14.331779,-4.02656 2.69887,-0.93384 5.590975,-1.61828 7.916598,-3.27583 2.375335,-1.69296 4.347485,-4.02266 5.800959,-6.551657 1.121994,-1.95223 1.824627,-4.182383 2.115651,-6.415177 0.297486,-2.282381 0.3168,-4.708837 -0.409478,-6.892913 -0.378285,-1.137562 -1.97915,-3.002872 -1.97915,-3.002872 0,0 -5.121411,1.722935 -7.780112,2.115666 -2.431445,0.359055 -4.919323,0.383773 -7.37063,0.20485 -2.234328,-0.163275 -4.548076,-0.308031 -6.619918,-1.160201 -1.844205,-0.758589 -3.62157,-1.893498 -4.91376,-3.412309 -1.584389,-2.008539 -1.604316,-2.097074 -3.068552,-5.90402 z"
   id="path1656"
   inkscape:label="ka"
   sodipodi:nodetypes="csssscscsccsssscsscsscsscsscssssscccccc" />
     </g>
     <g
   id="g11427"
   inkscape:label="star-top"
   transform-origin="100 35.5">
     <animateTransform
   attributeName="transform"
   type="rotate"
   dur="13s"
   calcMode="spline"
   values="0;-3600"
   keyTimes="0;1"
   keySplines=".8 .2 .2 .8"
   repeatCount="indefinite" />
     <path
   style="display:inline;fill:#fdbe00;fill-opacity:1;stroke-width:2.117"
   id="path886"
   d="m 104.97992,42.269742 -4.91201,-3.072766 -4.976537,2.96712 1.404511,-5.621156 -4.35974,-3.816064 5.780031,-0.401284 L 100.19823,27 l 2.16777,5.373118 5.77015,0.52471 -4.44028,3.72205 z" /></g><g
   id="g11424"
   inkscape:label="star-left"
   transform-origin="43.5 132.5">
     <animateTransform
   attributeName="transform"
   type="rotate"
   dur="13s"
   calcMode="spline"
   values="0;-3600"
   keyTimes="0;1"
   keySplines=".8 .2 .2 .8"
   repeatCount="indefinite" />
     <path
   style="display:inline;fill:#fdbe00;fill-opacity:1;stroke-width:2.117"
   id="path886-3"
   d="m 49.878194,138.00902 -5.540573,-1.69491 -4.037719,4.15537 -0.100119,-5.7931 -5.19978,-2.55595 5.478691,-1.8854 0.824055,-5.73503 3.486156,4.62783 5.709098,-0.98846 -3.324126,4.74554 z" /></g><g
   id="g11421"
   inkscape:label="star-right"
   transform-origin="156.5 132.5">
     <animateTransform
   attributeName="transform"
   type="rotate"
   dur="13s"
   calcMode="spline"
   values="0;-3600"
   keyTimes="0;1"
   keySplines=".8 .2 .2 .8"
   repeatCount="indefinite" />
     <path
   style="display:inline;fill:#fdbe00;fill-opacity:1;stroke-width:2.117"
   id="path886-8"
   d="m 160.38374,140.38638 -4.2678,-3.91851 -5.43472,2.00793 2.40782,-5.26992 -3.58904,-4.54838 5.75591,0.66151 3.21654,-4.81901 1.14956,5.67873 5.57699,1.57013 -5.04541,2.84814 z"
   inkscape:label="path886-8" /></g></g></svg>
