<svg width="200" height="200" viewBox="0 0 200 200" xml:space="preserve" xmlns="http://www.w3.org/2000/svg">
  <path style="fill:#c42021;fill-opacity:1;stroke-width:2.11699" d="M0 0h200v200H0z"/>
  <path style="fill:#fdbe00;fill-opacity:1;stroke-width:.571503" d="m104.048 114.48-1.326-.83-1.344.8.38-1.517-1.178-1.03 1.56-.108.617-1.438.585 1.45 1.558.142-1.199 1.005z" transform="translate(-280.441 -384.048) scale(3.70427)"/>
  <path style="fill:#fdbe00;fill-opacity:1;stroke-width:.571503" d="m104.048 114.48-1.326-.83-1.344.8.38-1.517-1.178-1.03 1.56-.108.617-1.438.585 1.45 1.558.142-1.199 1.005z" transform="translate(-348.005 -293.36) scale(3.70427)"/>
  <path style="fill:#fdbe00;fill-opacity:1;stroke-width:.571503" d="m104.048 114.48-1.326-.83-1.344.8.38-1.517-1.178-1.03 1.56-.108.617-1.438.585 1.45 1.558.142-1.199 1.005z" transform="translate(-212.877 -293.36) scale(3.70427)"/>
  <path style="fill:#fdbe00;fill-opacity:1;stroke-width:2.11701" d="M65.262 60.69s7.495 7.002 12.213 7.178c5.298.197 10.022-.918 14.597-3.234 5.722-2.897 11.835-5.025 18.643-4.763 6.362.245 12.828 2.448 18.153 5.938 2.291 1.501 5.46 6.142 5.46 6.142s-10.83-5.283-15.604-5.693c-9.174-.788-13.929 1.87-13.929 1.87s1.313 4.641 1.484 7.03c.174 2.433-.128 4.889-.478 7.303-.325 2.239-1.501 6.62-1.501 6.62s8.062-2.376 12.216-2.867c4.631-.547 11.64-.48 16.258.173 4.156.588 5.641 1.068 9.474 2.777 2.808 1.252 5.849 3.379 8.186 5.376 1.779 1.52 4.573 5.324 4.573 5.324s-4.384-3.494-6.825-4.846c-1.367-.757-4.616-1.662-6.601-2.116-4.412-1.007-8.075-1.094-12.596-.91-6.073.246-12.08 1.435-17.997 2.821-11.72 2.746-22.843 7.86-34.67 10.1-4.174.792-8.24 1.476-12.489 1.57-2.914.065-6.157.048-8.94-.818-2.507-.781-4.923-2.219-6.688-4.163-1.791-1.974-3.549-7.166-3.549-7.166s3.59 4.148 5.937 5.46c1.9 1.06 4.117 1.535 6.28 1.774 3.668.405 7.414-.008 11.055-.614 4.895-.814 9.642-2.404 14.332-4.027 2.699-.934 5.59-1.618 7.916-3.276 2.376-1.693 4.348-4.022 5.801-6.551 1.122-1.953 1.825-4.183 2.116-6.416.298-2.282.317-4.708-.41-6.893-.378-1.137-1.979-3.002-1.979-3.002s-5.12 1.722-7.78 2.115c-2.431.36-4.919.384-7.37.205-2.235-.163-4.548-.308-6.62-1.16-1.844-.759-3.622-1.894-4.914-3.412-1.88-2.21-2.92-4.752-3.754-7.849z"/>
  <g style="font-weight:600;font-size:8.81432px;font-family:Oswald;-inkscape-font-specification:'Oswald Semi-Bold';text-align:center;letter-spacing:4.35px;text-anchor:middle;fill:#fff;stroke-width:2.11701">
    <path d="M45.445 176.164v-7.14h2.397q.644 0 1.058.247.414.238.617.705.203.459.203 1.12 0 .828-.273 1.269-.274.432-.74.6-.468.167-1.05.167h-.634v3.032zm1.578-4.134h.529q.29 0 .44-.106.15-.105.194-.317.053-.212.053-.538 0-.273-.044-.476-.035-.211-.185-.335-.15-.123-.467-.123h-.52zm7.831 4.134v-7.14h1.578v2.891h1.11v-2.89h1.579v7.139h-1.578v-3.12h-1.11v3.12zm9.71 0v-7.14h1.577v7.14zm6.994 0v-7.14h1.578v6.073h1.639v1.067zm7.911 0 1.348-7.14h1.799l1.33 7.14h-1.454l-.238-1.507h-1.049l-.247 1.507zm1.877-2.45h.758l-.379-2.786zm7.674 2.45v-7.14h1.806q.935 0 1.455.238.52.23.731.732.212.494.212 1.287v2.591q0 .802-.212 1.314-.211.502-.731.74-.512.238-1.437.238zm1.577-1.093h.247q.361 0 .52-.106.159-.106.194-.317.044-.212.044-.529v-3.111q0-.318-.053-.512-.044-.194-.203-.282-.158-.088-.511-.088h-.238zm7.937 1.093v-7.14h3.209v1.076h-1.63v1.771h1.242v1.093h-1.243v2.133h1.649v1.067zm8.29 0v-7.14h1.578v6.073h1.64v1.067zm8.256 0v-7.14h2.397q.643 0 1.057.247.415.238.617.705.203.459.203 1.12 0 .828-.273 1.269-.273.432-.74.6-.468.167-1.05.167h-.634v3.032zm1.577-4.134h.529q.29 0 .44-.106.15-.105.194-.317.053-.212.053-.538 0-.273-.044-.476-.035-.211-.185-.335-.15-.123-.467-.123h-.52zm7.832 4.134v-7.14h1.577v2.891h1.111v-2.89h1.578v7.139h-1.578v-3.12h-1.11v3.12zm9.709 0v-7.14h1.577v7.14zm6.65 0 1.349-7.14h1.798l1.33 7.14h-1.453l-.238-1.507h-1.05l-.246 1.507zm1.878-2.45h.758l-.38-2.786z" style="font-weight:700;-inkscape-font-specification:'Oswald Bold'" transform="scale(1.07994 .92598)" aria-label="PHILADELPHIA"/>
  </g>
  <path d="m41.064 153.899 3.735-19.273h4.354l3.712 19.273h-3.64l-.69-4.235h-3.046l-.737 4.235zm4.782-6.638h2.308l-1.166-7.781zm9.47 6.638v-19.273h2.737l4.283 10.041v-10.04h3.235v19.272h-2.617l-4.283-10.66v10.66Zm12.73 0 3.736-19.273h4.354l3.712 19.273h-3.64l-.69-4.235h-3.046l-.738 4.235zm4.783-6.638h2.308l-1.166-7.781zm8.865 6.638v-19.273h3.926v8.138l3.474-8.138h3.807l-3.617 8.661 3.879 10.612h-3.95l-2.974-8.637-.619 1.094v7.543zm12.916 0v-19.273h4.878q1.261 0 2.332.214 1.07.214 1.88.762.832.547 1.26 1.522.453.952.453 2.499 0 1.166-.334 1.998-.333.81-.951 1.285-.619.476-1.523.643 1.118.166 1.88.761.761.595 1.142 1.57.38.976.38 2.356 0 1.452-.38 2.522-.357 1.071-1.071 1.761t-1.76 1.047q-1.048.333-2.428.333zm3.926-2.76h1.095q1.475 0 2.022-.738.571-.737.571-2.212 0-1.143-.262-1.809-.261-.69-.856-1-.571-.332-1.547-.332h-1.023Zm0-8.732h.976q1.023 0 1.546-.286.524-.31.714-.904.214-.619.214-1.499 0-.88-.309-1.404-.286-.547-.904-.785-.595-.238-1.523-.238h-.714Zm8.789 11.492 3.736-19.273h4.354l3.712 19.273h-3.64l-.69-4.235h-3.046l-.738 4.235zm4.783-6.638h2.308l-1.166-7.781zm12.672 6.638v-7.638l-3.76-11.635h3.689l2.07 6.781 1.927-6.78h3.569l-3.712 11.634v7.638zm9.819 0 3.736-19.273h4.354L146.4 153.9h-3.64l-.69-4.235h-3.046l-.738 4.235zm4.783-6.638h2.308l-1.166-7.781zm8.714 6.638v-19.273h2.736l4.283 10.041v-10.04h3.236v19.272h-2.617l-4.283-10.66v10.66Z" aria-label="ANAKBAYAN" style="font-weight:600;font-size:23.7937px;line-height:0;font-family:Oswald;-inkscape-font-specification:'Oswald Semi-Bold';text-align:center;letter-spacing:.500001px;text-anchor:middle;fill:#fff;stroke-width:2.11701"/>
</svg>
